<svg id="Layer_1" data-name="Layer 1" xmlns="http://www.w3.org/2000/svg" viewBox="0 0 538.58 195.59"><defs><style>.cls-1{fill:#2db0db;}.cls-2,.cls-4{fill:#5063a9;}.cls-3{fill:#fff;}.cls-4{font-size:60.37px;font-family:MyriadPro-Regular, Myriad Pro;}.cls-5{fill:none;stroke:#5063a9;stroke-miterlimit:10;stroke-width:5px;}</style></defs><title>logo-payr</title><path class="cls-1" d="M290.12,156c4.58,16.37,18.19,28,37,28h81.85c22.36,0,42.05-19.29,42.05-41.66V60.49C451,38.13,431.31,20,408.95,20H327.09c-16.42,0-30.56,11-36.91,23h40.75Z"/><path class="cls-2" d="M118.66,50.34a60,60,0,0,1-3.34,20,42.13,42.13,0,0,1-9.6,15.87,65.29,65.29,0,0,1-8.44,7.28,50.23,50.23,0,0,1-10.16,5.66,63.82,63.82,0,0,1-12.08,3.64,74.15,74.15,0,0,1-14.6,1.31H40.64v49.22H2.84V2.83H61.26A93.24,93.24,0,0,1,83.75,5.21a54.2,54.2,0,0,1,17.13,7.53A37.91,37.91,0,0,1,114,27.85Q118.66,37.3,118.66,50.34Zm-38.81.91a19.47,19.47,0,0,0-3-11A16,16,0,0,0,69.55,34a31.57,31.57,0,0,0-10.26-2.68q-4.9-.35-13.29-.35H40.64V76h2.63q5.36,0,10.11-.1a56.73,56.73,0,0,0,8.29-.71,27.74,27.74,0,0,0,6.42-2,16.69,16.69,0,0,0,5.21-3.28,19.88,19.88,0,0,0,5.2-7.78A35.15,35.15,0,0,0,79.85,51.25Z"/><path class="cls-2" d="M180.38,142.34l-6,5a36.13,36.13,0,0,1-7.06,4.43,47.31,47.31,0,0,1-8.44,3.23,46.35,46.35,0,0,1-11.49,1.11q-13.75,0-22.84-9.23t-9.09-23.25q0-11.53,4.61-18.64a31.67,31.67,0,0,1,13.29-11.26,69.61,69.61,0,0,1,20.95-5.91q12.18-1.66,26.21-2.58v-.55q0-8.58-6.32-11.86t-19-3.28a52.09,52.09,0,0,0-13.38,2.08,104.06,104.06,0,0,0-15,5.31h-2.77v-25q4.8-1.38,15.5-3.28a123.92,123.92,0,0,1,21.59-1.89q26.76,0,39,8.9t12.23,27.18v70.5H180.38Zm0-16.06V104.69q-8.21.83-13.29,1.43a45.26,45.26,0,0,0-10,2.35,14,14,0,0,0-6.6,4.48,12.57,12.57,0,0,0-2.35,8q0,7.29,3.92,10t11.58,2.72a21.55,21.55,0,0,0,8.67-1.94A26.87,26.87,0,0,0,180.38,126.29Z"/><path class="cls-2" d="M321.77,49.7,269.44,191.35h-34.7l15.69-40.51-38-101.14h34l21.78,65,20.39-65Z"/><path class="cls-3" d="M411.75,83.18h-2.93A26.05,26.05,0,0,0,403,82.12q-3.84-.35-8.49-.35a45.71,45.71,0,0,0-11.67,1.62,113.94,113.94,0,0,0-11.88,3.84v76H335.54V49.72h35.37V66q2.42-2.22,6.72-5.61A65.21,65.21,0,0,1,385.47,55a43.11,43.11,0,0,1,8.94-4,31.11,31.11,0,0,1,9.65-1.67q1.72,0,3.84.1t3.84.3Z"/><text class="cls-4" transform="translate(485.76 72.24)">R</text><circle class="cls-5" cx="502.7" cy="52.03" r="31.69"/></svg>